<?xml version="1.0" encoding="UTF-8" standalone="no"?>
<svg width="22px" height="22px" viewBox="0 0 22 22" version="1.1" xmlns="http://www.w3.org/2000/svg" xmlns:xlink="http://www.w3.org/1999/xlink">
    <!-- Generator: Sketch 40.1 (33804) - http://www.bohemiancoding.com/sketch -->
    <title>codepenIcon</title>
    <desc>Created with Sketch.</desc>
    <defs></defs>
    <g id="codepen" stroke="none" stroke-width="1" fill="none" fill-rule="evenodd">
        <g id="codepenIcon" fill="#B8C2CC">
            <path d="M20.307217,12.6788025 L17.9189617,11.0845605 L20.307217,9.4903949 L20.307217,12.6788025 Z M12.0629872,19.4364076 L12.0629872,14.993121 L16.2018383,12.2309809 L19.5428681,14.4606879 L12.0629872,19.4364076 Z M11.1084511,13.3382675 L7.73180426,11.0845605 L11.1084511,8.8308535 L14.4847915,11.0845605 L11.1084511,13.3382675 Z M10.1536085,19.4364076 L2.67365106,14.4606879 L6.01498723,12.2309809 L10.1536085,14.993121 L10.1536085,19.4364076 Z M1.90937872,9.4903949 L4.29786383,11.0845605 L1.90937872,12.6788025 L1.90937872,9.4903949 Z M10.1536085,2.73271338 L10.1536085,7.176 L6.01498723,9.93875159 L2.67365106,7.70835669 L10.1536085,2.73271338 Z M12.0629872,2.73271338 L19.5428681,7.70835669 L16.2018383,9.93875159 L12.0629872,7.176 L12.0629872,2.73271338 Z M22.2080936,7.58300637 C22.2061021,7.56901911 22.2025787,7.55564331 22.2002809,7.54165605 C22.1955319,7.51475159 22.1906298,7.48792357 22.183583,7.46170701 C22.1794468,7.44596178 22.1736255,7.43082803 22.1687234,7.41569427 C22.1610638,7.39230573 22.1534809,7.36899363 22.1441362,7.34629299 C22.1376255,7.33054777 22.1301191,7.31480255 22.1228426,7.29966879 C22.1128085,7.27803822 22.1023915,7.25701911 22.090366,7.2366879 C22.081634,7.22147771 22.0722894,7.20687898 22.0632511,7.19235669 C22.050383,7.17248408 22.0372085,7.15322293 22.0228085,7.13457325 C22.0123915,7.12058599 22.0012851,7.10659873 21.9901787,7.0931465 C21.9749362,7.07571975 21.9591574,7.05821656 21.9425362,7.04185987 C21.9300511,7.02909554 21.9176426,7.01625478 21.9045447,7.00456051 C21.8870043,6.98881529 21.8689277,6.9736051 21.8504681,6.9590828 C21.8362213,6.948 21.8221277,6.9369172 21.8072681,6.92644586 C21.8016766,6.92292994 21.7967745,6.91826752 21.7914894,6.91475159 L11.6378043,0.160050955 C11.3170979,-0.0533503185 10.8994979,-0.0533503185 10.5787149,0.160050955 L0.425106383,6.91475159 C0.419821277,6.91826752 0.414842553,6.92292994 0.40932766,6.92644586 C0.394391489,6.9369172 0.380374468,6.948 0.366357447,6.9590828 C0.347668085,6.9736051 0.329514894,6.98881529 0.312357447,7.00456051 C0.298876596,7.01625478 0.286621277,7.02909554 0.274059574,7.04185987 C0.257438298,7.05821656 0.241659574,7.07571975 0.226723404,7.0931465 C0.215310638,7.10659873 0.204204255,7.12058599 0.193710638,7.13457325 C0.179693617,7.15322293 0.166212766,7.17248408 0.153651064,7.19235669 C0.144,7.20687898 0.134961702,7.22147771 0.126229787,7.2366879 C0.114510638,7.25701911 0.104017021,7.27803822 0.0937531915,7.29966879 C0.0864765957,7.31480255 0.078893617,7.33054777 0.0724595745,7.34629299 C0.0631148936,7.36899363 0.0555319149,7.39230573 0.0478723404,7.41569427 C0.042893617,7.43082803 0.0373787234,7.44596178 0.033012766,7.46170701 C0.0259659574,7.48792357 0.021293617,7.51475159 0.0163148936,7.54165605 C0.0140170213,7.55564331 0.010493617,7.56901911 0.00873191489,7.58300637 C0.00314042553,7.62382166 0,7.66524841 0,7.70721019 L0,14.4619108 C0,14.5038726 0.00314042553,14.5452994 0.00873191489,14.5867261 C0.010493617,14.6001783 0.0140170213,14.6140892 0.0163148936,14.627465 C0.021293617,14.6543694 0.0259659574,14.681121 0.033012766,14.707414 C0.0373787234,14.7231592 0.042893617,14.738293 0.0478723404,14.7535032 C0.0555319149,14.7767389 0.0631148936,14.8001274 0.0724595745,14.8234395 C0.078893617,14.8392611 0.0864765957,14.8543949 0.0937531915,14.8695287 C0.104017021,14.8910064 0.114510638,14.9120255 0.126229787,14.9330446 C0.134961702,14.9477197 0.144,14.9621656 0.153651064,14.9767643 C0.166212766,14.9966369 0.179693617,15.0158981 0.193710638,15.0345478 C0.204204255,15.0491465 0.215310638,15.0625223 0.226723404,15.0758981 C0.241659574,15.0934013 0.257438298,15.1109045 0.274059574,15.1272611 C0.286621277,15.1400255 0.298876596,15.1528662 0.312357447,15.1644841 C0.329514894,15.1803822 0.347668085,15.1955159 0.366357447,15.2100382 C0.380374468,15.2211975 0.394391489,15.2322038 0.40932766,15.2426752 C0.414842553,15.2461911 0.419821277,15.2508535 0.425106383,15.254293 L10.5787149,22.0090701 C10.7391064,22.1157707 10.9237787,22.1694268 11.1084511,22.1694268 C11.292817,22.1694268 11.4774128,22.1157707 11.6378043,22.0090701 L21.7914894,15.254293 C21.7967745,15.2508535 21.8016766,15.2461911 21.8072681,15.2426752 C21.8221277,15.2322038 21.8362213,15.2211975 21.8504681,15.2100382 C21.8689277,15.1955159 21.8870043,15.1803822 21.9045447,15.1644841 C21.9176426,15.1528662 21.9300511,15.1400255 21.9425362,15.1272611 C21.9591574,15.1109045 21.9749362,15.0934013 21.9901787,15.0758981 C22.0012851,15.0625223 22.0123915,15.0491465 22.0228085,15.0345478 C22.0372085,15.0158981 22.050383,14.9966369 22.0632511,14.9767643 C22.0722894,14.9621656 22.081634,14.9477197 22.090366,14.9330446 C22.1023915,14.9120255 22.1128085,14.8910064 22.1228426,14.8695287 C22.1301191,14.8543949 22.1376255,14.8392611 22.1441362,14.8234395 C22.1534809,14.8001274 22.1610638,14.7767389 22.1687234,14.7535032 C22.1736255,14.738293 22.1794468,14.7231592 22.183583,14.707414 C22.1906298,14.681121 22.1955319,14.6543694 22.2002809,14.627465 C22.2025787,14.6140892 22.2061021,14.6001783 22.2080936,14.5867261 C22.2133787,14.5452994 22.2166723,14.5038726 22.2166723,14.4619108 L22.2166723,7.70721019 C22.2166723,7.66524841 22.2133787,7.62382166 22.2080936,7.58300637 L22.2080936,7.58300637 Z" id="Fill-4"></path>
        </g>
    </g>
</svg>
