<?xml version="1.0" encoding="UTF-8" standalone="no"?>
<svg width="22px" height="22px" viewBox="0 0 22 22" version="1.1" xmlns="http://www.w3.org/2000/svg" xmlns:xlink="http://www.w3.org/1999/xlink">
    <!-- Generator: Sketch 40.1 (33804) - http://www.bohemiancoding.com/sketch -->
    <title>githubIcon</title>
    <desc>Created with Sketch.</desc>
    <defs></defs>
    <g id="Page-1" stroke="none" stroke-width="1" fill="none" fill-rule="evenodd">
        <g id="githubIcon" fill="#B8C2CC">
            <path d="M10.9993247,0 C4.92535298,0 0,4.92467772 0,11.0006753 C0,15.8598527 3.1514426,19.9823204 7.52308165,21.4375077 C8.07341928,21.5381215 8.27397176,21.1984653 8.27397176,20.9067526 C8.27397176,20.6461019 8.26451811,19.9539595 8.25911602,19.0362799 C5.1995089,19.7007366 4.55395948,17.5615101 4.55395948,17.5615101 C4.05359116,16.2906691 3.33241252,15.9530387 3.33241252,15.9530387 C2.33370166,15.2703499 3.40804174,15.2838551 3.40804174,15.2838551 C4.51209331,15.3621854 5.09281768,16.4176182 5.09281768,16.4176182 C6.07397176,18.0983425 7.66691222,17.61283 8.29422959,17.3319214 C8.3941682,16.6208717 8.67777778,16.1360344 8.99244936,15.8612032 C6.55003069,15.583671 3.98201351,14.6396562 3.98201351,10.4246777 C3.98201351,9.22406384 4.41080417,8.2422345 5.11442603,7.47311234 C5.0009822,7.19490485 4.62351136,6.07667281 5.22179251,4.56206262 C5.22179251,4.56206262 6.14554942,4.26629834 8.24696133,5.68974831 C9.12412523,5.44530387 10.0654389,5.32375691 11.0006753,5.31903008 C11.9345611,5.32375691 12.8758748,5.44530387 13.7543892,5.68974831 C15.8544506,4.26629834 16.7761817,4.56206262 16.7761817,4.56206262 C17.3764886,6.07667281 16.9990178,7.19490485 16.885574,7.47311234 C17.5905463,8.2422345 18.016636,9.22406384 18.016636,10.4246777 C18.016636,14.6504604 15.4445672,15.5802947 12.9940454,15.8524248 C13.3890731,16.192081 13.740884,16.8632904 13.740884,17.8896869 C13.740884,19.3597299 13.7273788,20.5461633 13.7273788,20.9067526 C13.7273788,21.2011664 13.9252302,21.5435236 14.483671,21.4361572 C18.8505832,19.9782689 22,15.8585021 22,11.0006753 C22,4.92467772 17.074647,0 10.9993247,0" id="Fill-1"></path>
        </g>
    </g>
</svg>