<?xml version="1.0" encoding="UTF-8" standalone="no"?>
<svg width="22px" height="22px" viewBox="0 0 22 22" version="1.1" xmlns="http://www.w3.org/2000/svg" xmlns:xlink="http://www.w3.org/1999/xlink">
    <!-- Generator: Sketch 40.1 (33804) - http://www.bohemiancoding.com/sketch -->
    <title>linkedinIcon</title>
    <desc>Created with Sketch.</desc>
    <defs></defs>
    <g id="Page-1" stroke="none" stroke-width="1" fill="none" fill-rule="evenodd">
        <g id="linkedinIcon" fill="#B8C2CC">
            <path d="M18.7465348,18.746382 L15.4857365,18.746382 L15.4857365,13.6406905 C15.4857365,12.4232382 15.4634316,10.8571567 13.7902558,10.8571567 C12.0923308,10.8571567 11.8316991,12.1833838 11.8316991,13.552693 L11.8316991,18.746382 L8.57166468,18.746382 L8.57166468,8.24747924 L11.7012305,8.24747924 L11.7012305,9.68202272 L11.7449238,9.68202272 C12.1806339,8.85674009 13.2448543,7.98654204 14.8323241,7.98654204 C18.1365101,7.98654204 18.7465348,10.1611205 18.7465348,12.9877365 L18.7465348,18.746382 L18.7465348,18.746382 Z M4.89410016,6.81232466 C3.84836532,6.81232466 3.00184717,5.96458432 3.00184717,4.92007166 C3.00184717,3.87647565 3.84836532,3.02873531 4.89410016,3.02873531 C5.93723785,3.02873531 6.7849782,3.87647565 6.7849782,4.92007166 C6.7849782,5.96458432 5.93723785,6.81232466 4.89410016,6.81232466 L4.89410016,6.81232466 Z M3.26186773,18.746382 L6.52495764,18.746382 L6.52495764,8.24747924 L3.26186773,8.24747924 L3.26186773,18.746382 Z M20.3715869,0 L1.62382989,0 C0.72796589,0 0,0.710091386 0,1.58517819 L0,20.4120719 C0,21.2882281 0.72796589,21.9993889 1.62382989,21.9993889 L20.3715869,21.9993889 C21.2689786,21.9993889 22,21.2882281 22,20.4120719 L22,1.58517819 C22,0.710091386 21.2689786,0 20.3715869,0 L20.3715869,0 Z" id="Fill-10"></path>
        </g>
    </g>
</svg>